<svg xmlns="http://www.w3.org/2000/svg" viewBox="0 0 512 512" id="digital-camera"><path d="M503 147.63a7.5 7.5 0 0 0-7.5-7.5h-50a7.5 7.5 0 0 0-7.5 7.5v7.5h65zM105.28 110.67h.06v-7.5a7.5 7.5 0 0 0-7.5-7.5h-60a7.49 7.49 0 0 0-7.5 7.5v7.5h74.94zM334.75 306.52l.06-.2c.39-1.25.75-2.51 1.08-3.79l0-.07c.31-1.21.59-2.43.85-3.66l.09-.42c.23-1.17.44-2.36.63-3.55 0-.27.09-.54.13-.82a82.48 82.48 0 1 0-2.86 12.51zM256 339.42a57.5 57.5 0 1 1 57.5-57.5A57.57 57.57 0 0 1 256 339.42zM27.77 125.5A27.54 27.54 0 0 0 .27 153V411a27.54 27.54 0 0 0 27.5 27.5h80a27.24 27.24 0 0 0 12.5-3v-307a27.21 27.21 0 0 0-12.5-3zM82.5 200.67h-30a22.5 22.5 0 0 1 0-45h30a22.5 22.5 0 0 1 0 45zM351.38 302.21l-.21.9c-.08.37-.16.74-.25 1.11s-.23.95-.35 1.43c-.07.29-.14.58-.22.87-.14.55-.29 1.09-.44 1.64l-.18.63c-.18.62-.36 1.24-.55 1.85l-.12.37c-.21.7-.44 1.39-.67 2.08l0 .11A97.62 97.62 0 0 1 307 365a42.49 42.49 0 1 0 44.37-62.81z"></path><circle cx="256" cy="281.92" r="42.5"></circle><circle cx="454.5" cy="227.63" r="12.5"></circle><path d="M504.77 170H435.28l-27.77-41.66a7.49 7.49 0 0 0-6.24-3.34H147.77a27.42 27.42 0 0 0-12.5 3V435.48a27.27 27.27 0 0 0 12.5 3h337a27.53 27.53 0 0 0 27.5-27.5V177.5A7.5 7.5 0 0 0 504.77 170zM344 401.54a57.9 57.9 0 0 1-50.31-29.69 97.5 97.5 0 1 1 59.85-89.93q0 2.71-.15 5.4A57.5 57.5 0 0 1 344 401.54zM454.5 255.13a27.5 27.5 0 1 1 27.5-27.5A27.54 27.54 0 0 1 454.5 255.13zM82.5 170.67h-30a7.5 7.5 0 0 0 0 15h30a7.5 7.5 0 0 0 0-15zM322.48 77.23A7.49 7.49 0 0 0 316 73.5H196a7.49 7.49 0 0 0-6.48 3.73L170.43 110H341.57z"></path></svg>