<svg xmlns="http://www.w3.org/2000/svg" enable-background="new 0 0 64 64" viewBox="0 0 64 64" id="mobile-ui"><path d="M60.38,1.83H3.62C1.62,1.83,0,3.45,0,5.45v40.18c0,2,1.62,3.62,3.62,3.62h19.46v7.26l-3.74,1.77
		c-0.24,0.11-0.4,0.35-0.4,0.62v2.58c0,0.38,0.3,0.69,0.69,0.69h24.74c0.38,0,0.69-0.3,0.69-0.69V58.9c0-0.26-0.15-0.51-0.39-0.62
		l-3.74-1.78v-7.26h19.45c2,0,3.62-1.62,3.62-3.62V5.45C64,3.45,62.38,1.83,60.38,1.83z M24.46,56.45v-7.2h15.1v7.2H24.46z
		 M62.63,39.91H1.37V5.45c0-1.24,1.01-2.25,2.25-2.25h56.76c1.24,0,2.25,1.01,2.25,2.25V39.91z M32,47.05
		c-1.41,0-2.56-1.14-2.56-2.56c0-1.42,1.15-2.57,2.56-2.57c1.42,0,2.57,1.15,2.57,2.57C34.57,45.91,33.42,47.05,32,47.05z"></path><path d="M32 42.89c-.87 0-1.59.71-1.59 1.6 0 .88.71 1.59 1.59 1.59.88 0 1.6-.7 1.6-1.59C33.59 43.61 32.88 42.89 32 42.89zM42.77 17.92c.12-.23.1-.51-.06-.73l-1.64-2.21.89-2.61c.08-.24.02-.51-.17-.71-.13-.13-.31-.19-.49-.19-.07 0-.14.01-.21.03l-2.61.89-2.21-1.65c-.12-.09-.26-.13-.4-.13-.11 0-.22.03-.3.07-.24.11-.39.36-.38.62l.03 2.76-2.24 1.59c-.22.15-.33.41-.29.66.04.26.23.48.48.55l.26.08L19.15 31.21l-.02 0-.1.11-1.1 1.1-.01 0-.06.06-.07.08-.94.94c-.29.28-.45.67-.45 1.08 0 .42.16.8.45 1.08l.94.95c.29.29.67.45 1.09.45.41 0 .79-.16 1.08-.45l.95-.95.01 0 .06-.06.07-.08 15.46-15.46.08.26c.08.25.3.43.58.48h.08c.24 0 .45-.11.56-.29l1.6-2.25 2.79.03C42.42 18.29 42.65 18.14 42.77 17.92zM17.83 34.46l.67-.66 0 0 1.16 1.16-.67.67c-.02.03-.06.04-.1.04-.04 0-.09-.02-.11-.05l-.94-.94c-.03-.03-.05-.07-.05-.11C17.78 34.53 17.8 34.49 17.83 34.46zM20.4 31.89L34.88 17.4l.89.28.28.89L21.57 33.06 20.4 31.89z"></path><path d="M29.26 16.24h2.34c.38 0 .69-.31.69-.69 0-.38-.31-.69-.69-.69h-2.34c-.38 0-.69.31-.69.69C28.57 15.93 28.88 16.24 29.26 16.24zM32.92 11.48c.13.13.3.2.48.2.18 0 .35-.07.48-.2.27-.27.27-.7 0-.97l-1.67-1.67c-.13-.13-.3-.2-.48-.2s-.35.07-.48.2c-.27.27-.27.7 0 .97L32.92 11.48zM37.86 9.8c.38 0 .69-.31.69-.69V6.55c0-.38-.31-.69-.69-.69-.38 0-.69.31-.69.69v2.57C37.17 9.49 37.48 9.8 37.86 9.8zM37.91 21.18c-.38 0-.69.31-.69.69v2.34c0 .38.31.69.69.69.38 0 .69-.31.69-.69v-2.34C38.59 21.49 38.28 21.18 37.91 21.18zM42.94 19.57c-.13-.13-.3-.2-.48-.2-.18 0-.35.07-.48.2-.27.27-.27.7 0 .97l1.67 1.67c.13.13.3.2.48.2.18 0 .35-.07.48-.2.27-.27.27-.7 0-.97L42.94 19.57zM46.91 14.92h-2.57c-.38 0-.69.31-.69.69 0 .38.31.69.69.69h2.57c.38 0 .69-.31.69-.69C47.59 15.22 47.29 14.92 46.91 14.92zM42.61 11.53c.18 0 .35-.07.48-.2l1.53-1.53c.27-.27.27-.7 0-.97-.13-.13-.3-.2-.48-.2s-.35.07-.48.2l-1.53 1.53c-.27.27-.27.7 0 .97C42.26 11.46 42.43 11.53 42.61 11.53z"></path></svg>