<?xml version="1.0" standalone="no"?>
<!DOCTYPE svg PUBLIC "-//W3C//DTD SVG 20010904//EN"
 "http://www.w3.org/TR/2001/REC-SVG-20010904/DTD/svg10.dtd">
<svg version="1.0" xmlns="http://www.w3.org/2000/svg"
 width="225.000000pt" height="225.000000pt" viewBox="0 0 225.000000 225.000000"
 preserveAspectRatio="xMidYMid meet">

<g transform="translate(0.000000,225.000000) scale(0.100000,-0.100000)"
fill="#000000" stroke="none">
<path d="M119 2203 c-58 -30 -93 -72 -109 -134 -7 -25 -9 -359 -8 -967 l3
-929 30 -49 c23 -37 44 -56 84 -77 l55 -27 712 0 c541 0 719 3 741 12 18 8
107 14 248 18 203 5 223 7 262 27 47 25 84 71 102 122 14 42 14 263 1 313 -6
21 -22 51 -36 67 l-24 29 32 53 c32 51 33 55 36 184 4 145 -5 198 -43 243 -31
37 -31 37 0 74 38 45 47 98 43 243 -3 129 -4 133 -36 184 l-32 53 25 29 c38
46 47 99 43 244 -3 117 -6 135 -28 175 -28 49 -73 84 -129 100 -20 5 -122 10
-227 10 -148 0 -200 3 -227 15 -31 13 -138 15 -750 15 l-713 0 -55 -27z m1502
-89 c61 -31 59 3 59 -994 0 -1000 3 -952 -60 -985 -44 -23 -1416 -23 -1460 0
-63 33 -60 -16 -60 990 0 798 2 920 15 945 32 61 3 59 773 60 619 0 707 -2
733 -16z m469 -29 c50 -26 60 -59 60 -201 l0 -126 -34 -34 -34 -34 -151 0
-151 0 0 173 c0 94 -4 187 -9 205 l-10 32 150 0 c115 0 157 -4 179 -15z m-5
-509 c54 -23 65 -57 65 -196 0 -94 -4 -128 -16 -149 -30 -50 -48 -56 -206 -59
l-148 -4 0 211 0 211 135 0 c95 0 146 -4 170 -14z m11 -515 c45 -30 54 -61 54
-191 0 -195 -16 -210 -235 -210 l-135 0 0 211 0 211 148 -4 c105 -2 153 -7
168 -17z m20 -535 l34 -34 0 -126 c0 -205 -12 -216 -239 -216 l-150 0 10 32
c5 18 9 111 9 205 l0 173 151 0 151 0 34 -34z"/>
<path d="M820 1879 c-169 -28 -304 -168 -331 -343 -13 -84 1 -161 45 -248 l33
-67 -47 -52 c-83 -88 -142 -236 -110 -274 19 -23 941 -23 960 0 30 36 -35 195
-114 278 -25 26 -46 50 -46 53 0 3 9 19 21 35 37 53 60 136 60 219 -1 252
-222 439 -471 399z m176 -111 c206 -89 266 -334 120 -495 -49 -54 -46 -73 15
-119 49 -38 129 -143 129 -170 0 -12 -61 -14 -369 -14 -207 0 -372 4 -375 9
-10 16 76 132 125 169 55 41 67 65 47 91 -7 10 -28 38 -46 61 -128 170 -41
418 168 477 50 14 143 10 186 -9z"/>
<path d="M270 670 l0 -50 620 0 620 0 0 50 0 50 -620 0 -620 0 0 -50z"/>
<path d="M430 470 l0 -50 460 0 460 0 0 50 0 50 -460 0 -460 0 0 -50z"/>
</g>
</svg>
