<?xml version="1.0" standalone="no"?>
<!DOCTYPE svg PUBLIC "-//W3C//DTD SVG 20010904//EN"
 "http://www.w3.org/TR/2001/REC-SVG-20010904/DTD/svg10.dtd">
<svg version="1.0" xmlns="http://www.w3.org/2000/svg"
 width="512.000000pt" height="512.000000pt" viewBox="0 0 512.000000 512.000000"
 preserveAspectRatio="xMidYMid meet">

<g transform="translate(0.000000,512.000000) scale(0.100000,-0.100000)"
fill="#000000" stroke="none">
<path d="M624 4959 c-19 -21 -19 -75 -19 -2399 0 -2324 0 -2378 19 -2399 l19
-21 1917 0 1917 0 19 21 c19 21 19 68 22 1907 l2 1886 -512 513 -513 513
-1426 0 -1426 0 -19 -21z m2768 -590 l3 -471 24 -19 c22 -18 45 -19 492 -19
l469 0 0 -1790 0 -1790 -1820 0 -1820 0 0 2280 0 2280 1325 0 1324 0 3 -471z
m513 1 l370 -370 -373 0 -372 0 0 370 c0 204 1 370 3 370 1 0 169 -166 372
-370z"/>
<path d="M2348 4374 c-162 -39 -288 -161 -342 -333 -72 -226 -22 -455 132
-610 131 -130 286 -178 447 -136 172 45 320 203 369 391 20 79 21 232 1 309
-75 290 -327 447 -607 379z m273 -153 c76 -36 125 -85 164 -164 90 -185 52
-416 -90 -545 -214 -196 -529 -56 -578 257 -32 212 72 410 246 467 64 21 200
13 258 -15z"/>
<path d="M2050 3204 c-206 -44 -389 -218 -446 -424 -8 -30 -17 -113 -21 -185
-5 -123 -4 -131 17 -157 l21 -28 853 0 c814 0 854 1 869 18 14 15 17 41 17
145 0 148 -11 207 -55 302 -78 170 -231 291 -417 329 -120 25 -165 21 -248
-18 -122 -59 -229 -57 -345 5 -63 33 -134 37 -245 13z m176 -133 c18 -18 114
-51 181 -61 87 -14 186 1 272 40 72 34 119 37 206 15 76 -20 144 -58 199 -111
92 -87 134 -185 138 -322 l3 -87 -752 -3 -753 -2 0 62 c0 81 23 178 58 242 55
102 167 189 283 220 62 17 151 20 165 7z"/>
<path d="M1147 2103 c-31 -36 -22 -93 18 -111 37 -17 2753 -17 2790 0 40 18
49 75 18 111 -15 16 -95 17 -1413 17 -1318 0 -1398 -1 -1413 -17z"/>
<path d="M1145 1470 c-9 -10 -17 -31 -17 -45 0 -14 8 -35 17 -45 18 -20 39
-20 1415 -20 1376 0 1397 0 1415 20 22 25 22 65 0 90 -18 20 -39 20 -1415 20
-1376 0 -1397 0 -1415 -20z"/>
<path d="M1167 858 c-42 -15 -52 -74 -20 -110 15 -17 95 -18 1413 -18 1376 0
1397 0 1415 20 24 26 22 67 -4 93 l-22 22 -1377 2 c-907 1 -1386 -2 -1405 -9z"/>
</g>
</svg>
