<svg xmlns="http://www.w3.org/2000/svg" enable-background="new 0 0 32 32" viewBox="0 0 32 32" id="Smartphone"><path d="M22.56,2H9.44c-1.657,0-3,1.343-3,3v22c0,1.657,1.343,3,3,3h13.12c1.657,0,3-1.343,3-3V5C25.56,3.343,24.217,2,22.56,2z
		 M16,27.844c-0.587,0-1.063-0.476-1.063-1.063s0.476-1.063,1.063-1.063s1.063,0.476,1.063,1.063S16.587,27.844,16,27.844z
		 M22.06,22.563c0,0.552-0.448,1-1,1H10.94c-0.552,0-1-0.448-1-1V6.5c0-0.552,0.448-1,1-1h10.12c0.552,0,1,0.448,1,1V22.563z" fill="#d85b53" class="color000000 svgShape"></path></svg>