<svg xmlns="http://www.w3.org/2000/svg" viewBox="0 0 64 64" id="Financial"><circle cx="14" cy="21" r="2" fill="#ff6699" class="color000000 svgShape"></circle><circle cx="20" cy="21" r="2" fill="#ff6699" class="color000000 svgShape"></circle><path d="M60,45H58V19a6,6,0,0,0-6-6H12a6,6,0,0,0-6,6V38a2,2,0,0,0,4,0V19a2,2,0,0,1,2-2H52a2,2,0,0,1,2,2V45H43a1,1,0,0,0-1,1v1a1,1,0,0,1-1,1H23a1,1,0,0,1-1-1V46a1,1,0,0,0-.3-.71A1.13,1.13,0,0,0,21,45h-5.2l5.68-5.68,5.09,5.08a2,2,0,0,0,2.82,0L47,26.83V31a2,2,0,0,0,4,0V22a2,2,0,0,0-2-2H40a2,2,0,0,0,0,4h4.17L28,40.17l-5.09-5.08a2,2,0,0,0-2.82,0l-9.5,9.5a1.66,1.66,0,0,0-.32.43H4.13A2.13,2.13,0,0,0,2,47.16V50a5,5,0,0,0,5,5H57.14A4.87,4.87,0,0,0,62,50.14V47.07A2,2,0,0,0,60,45Z" fill="#ff6699" class="color000000 svgShape"></path></svg>